<svg id="svg2" xmlns="http://www.w3.org/2000/svg" viewBox="0 0 991.18 919.34"><defs><style>.cls-1{fill:#a61c2f;fill-opacity:0.94;}</style></defs><g id="g4"><path id="path6" class="cls-1" d="M571.05,789.39v-105a17.64,17.64,0,0,0-5.25-13,17,17,0,0,0-12.43-5.24H447.29a17,17,0,0,0-12.43,5.24,17.64,17.64,0,0,0-5.25,13v105a17.62,17.62,0,0,0,5.25,13,17,17,0,0,0,12.43,5.25H553.37a17,17,0,0,0,12.43-5.25A17.62,17.62,0,0,0,571.05,789.39Zm-1.11-206.63,9.95-253.59a12.18,12.18,0,0,0-5.53-10.5q-7.18-6.07-13.26-6.08H439.55q-6.07,0-13.26,6.08-5.52,3.87-5.52,11.6l9.39,252.49q0,5.52,5.53,9.12A23.81,23.81,0,0,0,449,595.47H551.16a22.49,22.49,0,0,0,13-3.59Q569.39,588.28,569.94,582.76Zm-7.73-516,424.31,777.9q19.34,34.8-1.11,69.61a70.65,70.65,0,0,1-60.77,34.81H76a70.68,70.68,0,0,1-60.78-34.81q-20.43-34.8-1.1-69.61L438.45,66.74a70.53,70.53,0,0,1,26-27.07,69.78,69.78,0,0,1,71.82,0A70.6,70.6,0,0,1,562.21,66.74Z" transform="translate(-4.74 -29.72)"/></g></svg>